<svg viewBox="-5000 -5000 10000 10000" width="10000" height="10000"
        xmlns="http://www.w3.org/2000/svg" xmlns:xlink="http://www.w3.org/1999/xlink" preserveAspectRatio="none"
        style="position: absolute; top: -5000px; left: -5000px;">
        <g>
            <g opacity="1" transform="rotate(0 778.6364 426.7942)"><svg x="778.6364" y="426.7942" width="132.5865"
                    height="90.2325" viewBox="64 66 72 49" preserveAspectRatio="none">
                    <g transform="matrix(1 0 0 1 0 0)">
                        <g>
                            <path data-color="1" d="M116 66v18.238L64 114V95.762L116 66z"
                            style="fill: #35C0ED;"></path>
                            <path data-color="2" d="M136 95.762V114L84 84.238V66l52 29.762z"
                                style="fill: #9AEBA6;"></path>
                            <path data-color="1" d="M103 115h-6v-6h6v6z"
                                style="fill: #35C0ED;"></path>
                        </g>
                    </g>
                </svg></g>
        </g>
    
        <g>
            <g opacity="1" transform="rotate(0 959.347 426.7942)"><svg x="959.347" y="426.7942" width="199.2894"
                    height="90.2325" viewBox="1.2 -28.48 177.76000000000002 80.48" preserveAspectRatio="none">
                    <g transform="matrix(1 0 0 1 0 0)" style="fill: #08376B;">
                        <path id="id-af56ce61-7615-49b6-8b70-7ec2c8a0a8bdD6z1nYkh11"
                            d="M3.92-7.08L1.20-7.08Q1.28-5.36 2.10-3.96Q2.92-2.56 4.34-1.58Q5.76-0.60 7.68-0.06Q9.60 0.48 11.88 0.48L11.88 0.48Q14.20 0.48 16.06-0.08Q17.92-0.64 19.24-1.68Q20.56-2.72 21.28-4.20Q22-5.68 22-7.48L22-7.48Q22-9.96 20.76-11.54Q19.52-13.12 17.66-14.18Q15.80-15.24 13.62-15.96Q11.44-16.68 9.58-17.48Q7.72-18.28 6.48-19.32Q5.24-20.36 5.24-22.08L5.24-22.08Q5.24-23.04 5.66-23.88Q6.08-24.72 6.90-25.34Q7.72-25.96 8.92-26.34Q10.12-26.72 11.68-26.72L11.68-26.72Q14.28-26.72 16.10-25.62Q17.92-24.52 18.24-22.16L18.24-22.16L20.96-22.16Q20.72-23.64 19.88-24.82Q19.04-26 17.76-26.82Q16.48-27.64 14.86-28.06Q13.24-28.48 11.48-28.48L11.48-28.48Q9.64-28.48 7.98-28Q6.32-27.52 5.06-26.60Q3.80-25.68 3.06-24.28Q2.32-22.88 2.32-21.08L2.32-21.08Q2.32-18.72 3.52-17.28Q4.72-15.84 6.54-14.88Q8.36-13.92 10.48-13.24Q12.60-12.56 14.42-11.70Q16.24-10.84 17.44-9.60Q18.64-8.36 18.64-6.28L18.64-6.28Q18.64-3.68 16.74-2.48Q14.84-1.28 11.68-1.28L11.68-1.28Q9.16-1.28 7.64-1.94Q6.12-2.60 5.32-3.52Q4.52-4.44 4.24-5.42Q3.96-6.40 3.92-7.08L3.92-7.08Z M54.28-4.08L53.08-5.16Q49-1.32 43.40-1.32L43.40-1.32Q40.28-1.32 37.88-2.40Q35.48-3.48 33.88-5.28Q32.28-7.08 31.46-9.44Q30.64-11.80 30.64-14.36L30.64-14.36Q30.64-17.08 31.50-19.34Q32.36-21.60 33.92-23.24Q35.48-24.88 37.62-25.80Q39.76-26.72 42.28-26.72L42.28-26.72Q44-26.72 45.42-26.32Q46.84-25.92 47.94-25.28Q49.04-24.64 49.74-23.82Q50.44-23 50.72-22.16L50.72-22.16L53.68-22.16Q53.08-23.52 52.14-24.68Q51.20-25.84 49.80-26.68Q48.40-27.52 46.52-28Q44.64-28.48 42.24-28.48L42.24-28.48Q38.76-28.48 35.90-27.48Q33.04-26.48 31-24.62Q28.96-22.76 27.84-20.14Q26.72-17.52 26.72-14.28L26.72-14.28Q26.72-11.48 27.62-8.82Q28.52-6.16 30.40-4.10Q32.28-2.04 35.20-0.78Q38.12 0.48 42.16 0.48L42.16 0.48Q44.72 0.48 46.74 0Q48.76-0.48 50.26-1.18Q51.76-1.88 52.76-2.68Q53.76-3.48 54.28-4.08L54.28-4.08Z M6.56 33.76L20.36 33.76L24.20 42L28.08 42L15.04 14L13.04 14L1.20 42L3.04 42L6.56 33.76ZM13.24 18.48L19.52 31.96L7.32 31.96L13.08 18.48L13.24 18.48Z M50.24 42L50.24 14L46.84 14L46.84 25.28L46.68 25.28Q46.28 24.24 45.62 23.54Q44.96 22.84 44.12 22.40Q43.28 21.96 42.34 21.76Q41.40 21.56 40.44 21.56L40.44 21.56Q38.44 21.56 36.76 22.30Q35.08 23.04 33.86 24.40Q32.64 25.76 31.96 27.68Q31.28 29.60 31.28 31.96L31.28 31.96Q31.28 34.36 31.96 36.30Q32.64 38.24 33.86 39.62Q35.08 41 36.76 41.74Q38.44 42.48 40.44 42.48L40.44 42.48Q45.16 42.48 46.68 38.76L46.68 38.76L46.84 38.76L46.84 42L50.24 42ZM46.84 30.52L46.84 34Q46.84 35.32 46.40 36.50Q45.96 37.68 45.22 38.54Q44.48 39.40 43.46 39.90Q42.44 40.40 41.28 40.40L41.28 40.40Q40 40.40 38.88 39.94Q37.76 39.48 36.92 38.48Q36.08 37.48 35.58 35.88Q35.08 34.28 35.08 32.04L35.08 32.04Q35.08 29.76 35.58 28.16Q36.08 26.56 36.94 25.54Q37.80 24.52 38.92 24.06Q40.04 23.60 41.28 23.60L41.28 23.60Q42.40 23.60 43.40 24.06Q44.40 24.52 45.16 25.42Q45.92 26.32 46.38 27.60Q46.84 28.88 46.84 30.52L46.84 30.52Z M61.40 22L57.96 22L57.96 45.68Q57.96 46.60 57.88 47.46Q57.80 48.32 57.54 49Q57.28 49.68 56.78 50.08Q56.28 50.48 55.48 50.48L55.48 50.48Q54.48 50.48 53.98 50Q53.48 49.52 53.04 48.48L53.04 48.48L51.04 50.04Q51.92 51.20 53.10 51.60Q54.28 52 55.56 52L55.56 52Q56.44 52 57.46 51.68Q58.48 51.36 59.36 50.46Q60.24 49.56 60.82 47.98Q61.40 46.40 61.40 43.88L61.40 43.88L61.40 22ZM57.56 15.68L57.56 15.68Q57.56 16.56 58.18 17.20Q58.80 17.84 59.72 17.84L59.72 17.84Q60.60 17.84 61.24 17.20Q61.88 16.56 61.88 15.68L61.88 15.68Q61.88 14.80 61.24 14.16Q60.60 13.52 59.72 13.52L59.72 13.52Q58.80 13.52 58.18 14.16Q57.56 14.80 57.56 15.68Z M71.68 22L68.28 22L68.28 35Q68.28 35.72 68.42 36.98Q68.56 38.24 69.24 39.46Q69.92 40.68 71.38 41.58Q72.84 42.48 75.48 42.48L75.48 42.48Q76.64 42.52 78.02 42.02Q79.40 41.52 80.80 40.12L80.80 40.12L81.44 39.48L81.60 39.48L81.60 42L85 42L85 22L81.60 22L81.60 34.40Q81.60 35.96 81.16 37.08Q80.72 38.20 80 38.94Q79.28 39.68 78.32 40.04Q77.36 40.40 76.32 40.40L76.32 40.40Q74.64 40.40 73.70 39.74Q72.76 39.08 72.30 38.20Q71.84 37.32 71.76 36.46Q71.68 35.60 71.68 35.20L71.68 35.20L71.68 22Z M102 26.56L104.28 26.56Q104.28 25.48 103.72 24.56Q103.16 23.64 102.18 22.98Q101.20 22.32 99.90 21.94Q98.60 21.56 97.12 21.56L97.12 21.56Q95.72 21.56 94.50 21.92Q93.28 22.28 92.38 23Q91.48 23.72 90.96 24.78Q90.44 25.84 90.44 27.24L90.44 27.24Q90.44 29.16 91.32 30.28Q92.20 31.40 93.52 32.08Q94.84 32.76 96.38 33.18Q97.92 33.60 99.24 34.10Q100.56 34.60 101.44 35.36Q102.32 36.12 102.32 37.44L102.32 37.44Q102.32 38 102.14 38.60Q101.96 39.20 101.48 39.70Q101 40.20 100.16 40.54Q99.32 40.88 98.04 40.88L98.04 40.88Q96.44 40.88 95.34 40.38Q94.24 39.88 93.54 39.18Q92.84 38.48 92.54 37.76Q92.24 37.04 92.24 36.56L92.24 36.56L89.64 36.56Q89.64 37.68 90.16 38.74Q90.68 39.80 91.74 40.64Q92.80 41.48 94.34 41.98Q95.88 42.48 97.92 42.48L97.92 42.48Q101.60 42.48 103.46 40.86Q105.32 39.24 105.32 36.60L105.32 36.60Q105.32 34.68 104.42 33.52Q103.52 32.36 102.16 31.66Q100.80 30.96 99.22 30.52Q97.64 30.08 96.28 29.60Q94.92 29.12 94.02 28.44Q93.12 27.76 93.12 26.52L93.12 26.52Q93.12 26 93.32 25.42Q93.52 24.84 94 24.34Q94.48 23.84 95.28 23.50Q96.08 23.16 97.28 23.16L97.28 23.16Q98.48 23.16 99.36 23.50Q100.24 23.84 100.84 24.34Q101.44 24.84 101.72 25.44Q102 26.04 102 26.56L102 26.56Z M112.20 23.60L108.72 23.60L108.72 22L112.20 22L112.20 15.84L115.60 15.84L115.60 22L120.44 22L120.44 23.60L115.60 23.60L115.60 36.88Q115.60 37.36 115.64 37.98Q115.68 38.60 115.88 39.14Q116.08 39.68 116.50 40.04Q116.92 40.40 117.68 40.40L117.68 40.40Q118.64 40.40 119.28 39.68Q119.92 38.96 120.32 38.12L120.32 38.12L122.20 40.04Q120.24 42 117.76 42L117.76 42Q116.72 42 115.72 41.64Q114.72 41.28 113.94 40.54Q113.16 39.80 112.68 38.64Q112.20 37.48 112.20 35.92L112.20 35.92L112.20 23.60Z M130.40 22L127 22L127 42L130.40 42L130.40 22ZM126.52 15.68L126.52 15.68Q126.52 16.56 127.16 17.20Q127.80 17.84 128.68 17.84L128.68 17.84Q129.56 17.84 130.20 17.20Q130.84 16.56 130.84 15.68L130.84 15.68Q130.84 14.80 130.20 14.16Q129.56 13.52 128.68 13.52L128.68 13.52Q127.80 13.52 127.16 14.16Q126.52 14.80 126.52 15.68Z M151.36 42L154.76 42L154.76 29.04Q154.76 28.32 154.64 27.06Q154.52 25.80 153.86 24.58Q153.20 23.36 151.76 22.46Q150.32 21.56 147.68 21.56L147.68 21.56Q146.52 21.52 145.08 22.02Q143.64 22.52 142.24 23.92L142.24 23.92L141.60 24.56L141.44 24.56L141.44 22L138.04 22L138.04 42L141.44 42L141.44 29.64Q141.44 28.08 141.88 26.96Q142.32 25.84 143.08 25.08Q143.84 24.32 144.82 23.96Q145.80 23.60 146.84 23.60L146.84 23.60Q148.52 23.60 149.44 24.26Q150.36 24.92 150.78 25.80Q151.20 26.68 151.28 27.56Q151.36 28.44 151.36 28.84L151.36 28.84L151.36 42Z M175.56 38.80L175.56 43.68Q175.56 45.52 175.12 46.80Q174.68 48.08 173.90 48.88Q173.12 49.68 172.06 50.04Q171 50.40 169.80 50.40L169.80 50.40Q167.68 50.40 166.38 49.32Q165.08 48.24 164 46.44L164 46.44L161.80 48.44Q162.08 48.80 162.68 49.38Q163.28 49.96 164.20 50.54Q165.12 51.12 166.40 51.54Q167.68 51.96 169.32 51.96L169.32 51.96Q172.36 51.96 174.24 51.10Q176.12 50.24 177.16 48.80Q178.20 47.36 178.58 45.50Q178.96 43.64 178.96 41.64L178.96 41.64L178.96 22L175.56 22L175.56 25.12L175.40 25.12Q174.92 23.44 173.34 22.50Q171.76 21.56 169.20 21.56L169.20 21.56Q167.16 21.56 165.48 22.30Q163.80 23.04 162.60 24.40Q161.40 25.76 160.74 27.68Q160.08 29.60 160.08 31.96L160.08 31.96Q160.08 34.36 160.74 36.30Q161.40 38.24 162.60 39.62Q163.80 41 165.46 41.74Q167.12 42.48 169.16 42.48L169.16 42.48Q171.40 42.48 173.06 41.60Q174.72 40.72 175.40 38.80L175.40 38.80L175.56 38.80ZM175.56 30.52L175.56 33.48Q175.56 35.16 175.10 36.44Q174.64 37.72 173.88 38.60Q173.12 39.48 172.12 39.94Q171.12 40.40 170.04 40.40L170.04 40.40Q169.08 40.40 167.98 40.06Q166.88 39.72 165.94 38.80Q165 37.88 164.38 36.20Q163.76 34.52 163.76 31.88L163.76 31.88Q163.76 29.08 164.52 27.42Q165.28 25.76 166.30 24.88Q167.32 24 168.38 23.74Q169.44 23.48 170.04 23.48L170.04 23.48Q171.36 23.48 172.40 24.06Q173.44 24.64 174.14 25.62Q174.84 26.60 175.20 27.88Q175.56 29.16 175.56 30.52L175.56 30.52Z">
                        </path>
                    </g>
                </svg></g>
        </g>

        <g>
            <g opacity="1" transform="rotate(0 933.0291 415.5151)"><svg x="933.0291" y="415.5151" width="2.2559"
                    height="112.7907" viewBox="0 0 2.2559 112.7907" preserveAspectRatio="none">
                    <defs>
                        <rect x="0" y="0" width="2.2559" height="112.7907" rx="0px" ry="0px"
                            id="id-af56ce61-7615-49b6-8b70-7ec2c8a0a8bdtBXipXk0b1691777793003"></rect>
                    </defs>
                    <use class="companyNameaf56ce61-7615-49b6-8b70-7ec2c8a0a8bd shapeStroke-straf56ce61-7615-49b6-8b70-7ec2c8a0a8bd"
                        style="fill: #08376B;stroke-width:0;"
                        xlink:href="#id-af56ce61-7615-49b6-8b70-7ec2c8a0a8bdtBXipXk0b1691777793003"></use>
                </svg></g>
        </g>
    </svg>